<?xml version="1.0" encoding="UTF-8"?>
<!DOCTYPE svg PUBLIC "-//W3C//DTD SVG 1.1//EN" "http://www.w3.org/Graphics/SVG/1.1/DTD/svg11.dtd">
<!-- Creator: CorelDRAW 2021 (64-Bit) -->
<svg xmlns="http://www.w3.org/2000/svg" xml:space="preserve" width="12.7mm" height="101.6mm" version="1.1" style="shape-rendering:geometricPrecision; text-rendering:geometricPrecision; image-rendering:optimizeQuality; fill-rule:evenodd; clip-rule:evenodd"
viewBox="0 0 1270 10160"
 xmlns:xlink="http://www.w3.org/1999/xlink"
 xmlns:xodm="http://www.corel.com/coreldraw/odm/2003">
 <defs>
  <style type="text/css">
   <![CDATA[
    .fil0 {fill:#FEFEFE}
    .fil1 {fill:#19416A}
   ]]>
  </style>
 </defs>
 <g id="Слой_x0020_1">
  <metadata id="CorelCorpID_0Corel-Layer"/>
  <path class="fil0" d="M39014.67 -7730.18l401.15 0c21.69,0 39.42,17.73 39.42,39.43l0 401.15c0,21.69 -17.73,39.41 -39.42,39.41l-151.41 0 0 -184.08 70.62 0c6.63,0 8.95,-6.62 8.95,-13.41l0 -67.04c0,-7.2 -2.84,-13.4 -9.85,-13.4l-69.72 0 0 -44.71c0,-32.11 17.63,-28.65 31.8,-30.77 27.93,-4.18 50.44,7.74 50.44,-12.14l0 -65.25c0,-6.47 -3.57,-11.62 -9.84,-11.62l-61.7 0c-10.96,0.51 -21.19,1.56 -29.48,3.56 -11.49,2.79 -11.33,3.5 -21.09,7.52 -3.24,1.34 -6.37,3.38 -9.27,5.04 -6.96,3.98 -18.46,14.13 -23.3,20.51 -21.37,28.27 -25,53.45 -25,91.21l0 36.65 -60.79 0c-3.64,0 -8.05,5.06 -8.05,11.62l0 70.62c0,5.88 3.14,11.61 8.95,11.61l59.89 0 0 184.08 -152.3 0c-21.69,0 -39.42,-17.72 -39.42,-39.41l0 -401.15c0,-21.7 17.73,-39.43 39.42,-39.43z"/>
  <path class="fil1" d="M103.74 10034.12l0 -114.56c0,-22.29 18.22,-40.5 40.5,-40.5l974.47 0c22.28,0 40.49,18.21 40.49,40.5l0 114.56c0,22.29 -18.21,40.5 -40.49,40.5l-974.47 0c-22.28,0 -40.5,-18.21 -40.5,-40.5zm827.11 -5668.27c-17.73,-40.51 -43.75,-76.97 -75.98,-107.47 -32.86,-31.08 -72.4,-56.19 -116.45,-73.32 -36.38,-14.14 -75.96,-22.85 -117.52,-25.05 -4.02,1.37 -8.34,2.1 -12.81,2.1l-466.79 0c-22.07,0 -40.11,-18.04 -40.11,-40.11l0 -113.44c0,-22.07 18.04,-40.11 40.11,-40.11l458.72 0 0 -0.4c73.51,0 143.85,13.99 208.08,39.29 66.72,26.25 126.99,64.85 177.62,112.73 51.25,48.47 92.56,106.42 120.74,170.74 9.65,19.35 17.75,40.48 24.13,63.4 20.18,72.41 -21.44,68.52 -51.82,68.71l-70.5 0c-31.28,1.23 -54.39,-4.4 -77.42,-57.07zm-0.83 192.41c-17.73,40.51 -43.75,76.97 -75.98,107.47 -32.86,31.08 -72.4,56.19 -116.45,73.32 -36.38,14.15 -75.95,22.85 -117.52,25.06 -4.02,-1.38 -8.34,-2.11 -12.81,-2.11l-466.78 0c-22.08,0 -40.12,18.04 -40.12,40.11l0 113.44c0,22.07 18.04,40.11 40.12,40.11l458.71 0 0 0.4c73.51,0 143.85,-13.99 208.08,-39.28 66.72,-26.26 126.99,-64.86 177.62,-112.74 51.25,-48.47 92.56,-106.41 120.74,-170.74 9.65,-19.35 17.75,-40.48 24.13,-63.4 20.18,-72.41 -21.44,-68.52 -51.82,-68.71l-70.5 0c-31.28,-1.23 -54.39,4.4 -77.42,57.07zm-250.22 2263.05l0 -270.45 -345.79 135.23 345.79 135.22zm195.56 -346.91l0 423.39 249.22 97.45c14.86,5.81 27,22.7 27,37.56l0 127.71c0,14.87 -12.14,22.25 -27,16.45l-995.92 -389.45c-13.94,-5.45 -25.48,-20.62 -26.86,-34.75l0 -0.11 -0.07 -0.59 0 -0.07 -0.04 -0.64 0 -0.03 -0.02 -0.67 0 -0.01 -0.02 -0.69 0 -127.71 0.02 -0.69 0 -0.01 0.02 -0.67 0 -0.03 0.04 -0.64 0 -0.07 0.07 -0.59 0 -0.11c1.37,-14.13 12.95,-29.31 26.86,-34.75l995.92 -389.45c14.86,-5.8 27,1.58 27,16.45l0 127.71c0,14.86 -12.14,31.75 -27,37.56l-249.22 97.45zm312.49 -4764.94c0,-71.24 -15.01,-139.27 -42.19,-201.36 -28.18,-64.33 -69.49,-122.27 -120.74,-170.74 -50.62,-47.89 -110.9,-86.48 -177.61,-112.74 -64.23,-25.29 -134.57,-39.28 -208.08,-39.28 -73.52,0 -143.84,13.99 -208.07,39.28 -66.72,26.26 -126.99,64.85 -177.62,112.74 -51.24,48.47 -92.55,106.41 -120.74,170.74 -27.17,62.09 -42.18,130.12 -42.18,201.36 0,71.25 15.01,139.28 42.18,201.37 28.19,64.33 69.5,122.27 120.74,170.74 50.63,47.88 110.9,86.48 177.62,112.74 64.23,25.29 134.55,39.28 208.07,39.28 73.51,0 143.85,-13.99 208.08,-39.28 66.71,-26.26 126.99,-64.86 177.61,-112.74 51.25,-48.47 92.56,-106.41 120.74,-170.74 27.18,-62.09 42.19,-130.12 42.19,-201.37zm-905.84 0c0,-44.78 9.4,-87.5 26.4,-126.32 17.74,-40.51 43.75,-76.99 75.99,-107.47 32.87,-31.08 72.41,-56.2 116.45,-73.32 42.41,-16.49 89.19,-25.61 138.38,-25.61 49.22,0 95.97,9.12 138.39,25.61 44.06,17.13 83.59,42.24 116.45,73.32 32.24,30.5 58.25,66.96 75.99,107.47 17,38.82 26.39,81.54 26.39,126.32 0,44.79 -9.39,87.51 -26.39,126.33 -17.74,40.51 -43.75,76.97 -75.99,107.47 -32.86,31.08 -72.39,56.19 -116.45,73.32 -42.42,16.49 -89.17,25.61 -138.39,25.61 -49.19,0 -95.97,-9.12 -138.38,-25.61 -44.04,-17.12 -83.58,-42.24 -116.45,-73.32 -32.24,-30.48 -58.25,-66.96 -75.99,-107.47 -17,-38.82 -26.4,-81.54 -26.4,-126.33zm-171.3 -873.82c2.56,-5.02 6.19,-9.59 10.88,-13.3l681.95 -541.4 -668.04 0c-22.28,0 -40.5,-18.22 -40.5,-40.5l0 -114.57c0,-22.28 18.22,-40.49 40.5,-40.49l974.47 0c22.28,0 40.49,18.21 40.49,40.49l0 114.57c0,19.01 -13.25,35.06 -30.97,39.37l-681.41 540.96 678.41 0c22.28,0 40.5,18.22 40.5,40.5l0 114.57c0,22.28 -18.22,40.49 -40.5,40.49l-974.47 0c-22.28,0 -40.49,-18.21 -40.49,-40.49l0 -114.57c0,-9.7 3.46,-18.63 9.18,-25.63zm-1.16 2748.9c2.55,-5.03 6.19,-9.59 10.88,-13.3l681.95 -541.4 -668.05 0c-22.28,0 -40.49,-18.22 -40.49,-40.5l0 -114.57c0,-22.28 18.21,-40.49 40.49,-40.49l974.47 0c22.29,0 40.5,18.21 40.5,40.49l0 114.57c0,19.01 -13.25,35.06 -30.97,39.36l-681.41 540.97 678.41 0c22.28,0 40.49,18.22 40.49,40.5l0 114.57c0,22.28 -18.21,40.49 -40.49,40.49l-974.47 0c-22.28,0 -40.5,-18.21 -40.5,-40.49l0 -114.57c0,-9.7 3.46,-18.63 9.19,-25.63zm-0.38 -1017.41l0 -114.56c0,-22.29 18.21,-40.5 40.49,-40.5l974.47 0c22.28,0 40.5,18.21 40.5,40.5l0 114.56c0,22.28 -18.22,40.5 -40.5,40.5l-974.47 0c-22.28,0 -40.49,-18.22 -40.49,-40.5zm1010.64 3162.08l-114.57 0c-22.28,0 -40.5,-18.21 -40.5,-40.5l0 -349.65c0,-22.28 18.22,-40.49 40.5,-40.49l114.57 0c22.28,0 40.5,18.21 40.5,40.49l0 349.65c0,22.29 -18.22,40.5 -40.5,40.5zm-1014.97 251.82l0 -114.57c0,-22.28 18.22,-40.5 40.5,-40.5l974.47 0c22.28,0 40.5,18.22 40.5,40.5l0 114.57c0,22.28 -18.22,40.49 -40.5,40.49l-974.47 0c-22.28,0 -40.5,-18.21 -40.5,-40.49zm595.87 1836.66l-114.57 0c-22.28,0 -40.49,-18.21 -40.49,-40.49l0 -458.48c0,-2.5 0.22,-4.96 0.67,-7.35l0 -39c0,-8.34 6.41,-15.18 14.58,-15.89 11.1,-1.35 22.61,-2.42 34.51,-3.14 12.04,-0.73 23.86,-1.12 35.35,-1.12 73.51,0 143.85,13.99 208.09,39.29 66.71,26.25 126.98,64.85 177.6,112.73 51.25,48.47 92.56,106.42 120.74,170.74 27.18,62.1 42.19,130.12 42.19,201.37 0,71.25 -15.01,139.27 -42.19,201.37 -28.18,64.32 -69.49,122.27 -120.74,170.74 -50.62,47.88 -110.89,86.48 -177.6,112.73 -64.24,25.3 -134.58,39.29 -208.09,39.29 -73.52,0 -143.84,-13.99 -208.08,-39.29 -66.71,-26.25 -126.98,-64.85 -177.61,-112.73 -51.24,-48.47 -92.55,-106.42 -120.74,-170.74 -27.17,-62.1 -42.18,-130.12 -42.18,-201.37 0,-71.25 15.01,-139.27 42.18,-201.37 28.19,-64.32 69.5,-122.27 120.74,-170.74 33.1,-31.31 70.34,-58.65 110.78,-81.13 39.82,-22.16 82.82,-39.67 128.02,-51.71 8.49,-2.24 17.21,2.85 19.45,11.34 0.35,1.35 0.52,2.71 0.52,4.05l0.04 167.1c0,7.32 -4.95,13.5 -11.66,15.36 -21.55,8.39 -42.1,18.78 -61.36,30.87 -19.76,12.39 -38.19,26.68 -54.93,42.5l-0.85 0.74c-31.83,30.32 -57.56,66.51 -75.14,106.67 -17,38.82 -26.4,81.53 -26.4,126.32 0,44.79 9.4,87.5 26.4,126.32 17.74,40.52 43.75,76.99 75.99,107.47 32.87,31.09 72.41,56.21 116.45,73.32 42.41,16.5 89.19,25.62 138.38,25.62 49.22,0 95.97,-9.12 138.39,-25.62 44.06,-17.13 83.6,-42.23 116.45,-73.32 32.24,-30.49 58.25,-66.95 75.99,-107.47 17,-38.82 26.39,-81.53 26.39,-126.32 0,-44.79 -9.39,-87.5 -26.39,-126.32 -17.74,-40.51 -43.75,-76.99 -75.99,-107.47 -32.85,-31.09 -72.39,-56.19 -116.45,-73.32 -9.12,-3.54 -18.44,-6.75 -27.94,-9.6l0 317.56c0,22.28 -18.22,40.49 -40.5,40.49zm-170.85 1188.82l0 -463.07c0,-22.28 18.21,-40.5 40.49,-40.5l114.57 0c22.28,0 40.5,18.22 40.5,40.5l0 463.07 234.4 0 0 -565.63c0,-22.28 18.21,-40.49 40.49,-40.49l114.57 0c22.28,0 40.5,18.21 40.5,40.49l0 606.13 0 114.56c0,22.29 -18.22,40.5 -40.5,40.5l-114.57 0 -315.39 0 -114.57 0 -315.37 0 -114.57 0c-22.28,0 -40.49,-18.21 -40.49,-40.5l0 -114.56 0 -606.13c0,-22.28 18.21,-40.49 40.49,-40.49l114.57 0c22.28,0 40.5,18.21 40.5,40.49l0 565.63 234.38 0zm588.85 775.8l-114.57 0c-22.28,0 -40.5,-18.22 -40.5,-40.5l0 -349.65c0,-22.28 18.22,-40.5 40.5,-40.5l114.57 0c22.28,0 40.49,18.22 40.49,40.5l0 349.65c0,22.28 -18.21,40.5 -40.49,40.5z"/>
 </g>
</svg>
