<?xml version="1.0" encoding="UTF-8"?>
<!DOCTYPE svg PUBLIC "-//W3C//DTD SVG 1.1//EN" "http://www.w3.org/Graphics/SVG/1.1/DTD/svg11.dtd">
<!-- Creator: CorelDRAW 2021 (64-Bit) -->
<svg xmlns="http://www.w3.org/2000/svg" xml:space="preserve" width="100mm" height="100mm" version="1.1" style="shape-rendering:geometricPrecision; text-rendering:geometricPrecision; image-rendering:optimizeQuality; fill-rule:evenodd; clip-rule:evenodd"
viewBox="0 0 10000 10000"
 xmlns:xlink="http://www.w3.org/1999/xlink"
 xmlns:xodm="http://www.corel.com/coreldraw/odm/2003">
 <defs>
  <style type="text/css">
   <![CDATA[
    .fil0 {fill:#FEFEFE}
   ]]>
  </style>
 </defs>
 <g id="Слой_x0020_1">
  <metadata id="CorelCorpID_0Corel-Layer"/>
  <path class="fil0" d="M859.33 53.8l8273.74 0c447.37,0 813.13,365.76 813.13,813.13l0 8273.97c0,447.36 -365.76,812.9 -813.13,812.9l-3122.72 0 0 -3796.72 1456.47 0c136.81,0 184.51,-136.58 184.51,-276.66l0 -1382.81c0,-148.5 -58.48,-276.2 -202.99,-276.2l-1437.99 0 0 -922.34c0,-662.28 363.64,-590.71 655.72,-634.46 576.23,-86.3 1040.44,159.5 1040.44,-250.47l0 -1345.85c0,-133.31 -73.66,-239.7 -202.99,-239.7l-1272.64 0c-225.92,10.52 -436.85,32.26 -608.04,73.41 -236.92,57.53 -233.63,72.29 -434.99,155.29 -66.64,27.59 -131.2,69.71 -191.08,103.83 -143.57,82.09 -380.72,291.39 -480.57,423.07 -440.83,583 -515.67,1102.39 -515.67,1881.17l0 756.05 -1253.7 0c-75.1,0 -166.06,104.32 -166.06,239.47l0 1456.73c0,121.14 64.78,239.47 184.51,239.47l1235.25 0 0 3796.72 -3141.2 0c-447.37,0 -813.13,-365.54 -813.13,-812.9l0 -8273.97c0,-447.37 365.76,-813.13 813.13,-813.13z"/>
 </g>
</svg>
