<?xml version="1.0" encoding="UTF-8"?>
<!DOCTYPE svg PUBLIC "-//W3C//DTD SVG 1.1//EN" "http://www.w3.org/Graphics/SVG/1.1/DTD/svg11.dtd">
<!-- Creator: CorelDRAW 2021 (64-Bit) -->
<svg xmlns="http://www.w3.org/2000/svg" xml:space="preserve" width="42.3332mm" height="42.3332mm" version="1.1" style="shape-rendering:geometricPrecision; text-rendering:geometricPrecision; image-rendering:optimizeQuality; fill-rule:evenodd; clip-rule:evenodd"
viewBox="0 0 4233.32 4233.32"
 xmlns:xlink="http://www.w3.org/1999/xlink"
 xmlns:xodm="http://www.corel.com/coreldraw/odm/2003">
 <defs>
  <style type="text/css">
   <![CDATA[
    .fil0 {fill:#FEFEFE}
   ]]>
  </style>
 </defs>
 <g id="Слой_x0020_1">
  <metadata id="CorelCorpID_0Corel-Layer"/>
  <path class="fil0" d="M40496.33 -10693.52l401.15 0c21.69,0 39.42,17.73 39.42,39.43l0 401.15c0,21.69 -17.73,39.41 -39.42,39.41l-151.41 0 0 -184.08 70.62 0c6.63,0 8.95,-6.62 8.95,-13.41l0 -67.04c0,-7.2 -2.84,-13.4 -9.85,-13.4l-69.72 0 0 -44.71c0,-32.11 17.63,-28.65 31.8,-30.77 27.93,-4.18 50.44,7.74 50.44,-12.14l0 -65.25c0,-6.47 -3.57,-11.62 -9.84,-11.62l-61.7 0c-10.96,0.51 -21.19,1.56 -29.48,3.56 -11.49,2.79 -11.33,3.5 -21.09,7.52 -3.24,1.34 -6.37,3.38 -9.27,5.04 -6.96,3.98 -18.46,14.13 -23.3,20.51 -21.37,28.27 -25,53.45 -25,91.21l0 36.65 -60.79 0c-3.64,0 -8.05,5.06 -8.05,11.62l0 70.62c0,5.88 3.14,11.61 8.95,11.61l59.89 0 0 184.08 -152.3 0c-21.69,0 -39.42,-17.72 -39.42,-39.41l0 -401.15c0,-21.7 17.73,-39.43 39.42,-39.43z"/>
  <path class="fil0" d="M773.39 445.97l2887.72 0c156.14,0 283.8,127.66 283.8,283.8l0 2887.8c0,156.14 -127.66,283.72 -283.8,283.72l-1089.9 0 0 -1325.14 508.34 0c47.75,0 64.4,-47.67 64.4,-96.56l0 -482.63c0,-51.83 -20.41,-96.4 -70.85,-96.4l-501.89 0 0 -321.92c0,-231.15 126.92,-206.17 228.86,-221.44 201.12,-30.12 363.14,55.67 363.14,-87.42l0 -469.73c0,-46.53 -25.71,-83.66 -70.85,-83.66l-444.18 0c-78.85,3.67 -152.47,11.26 -212.22,25.62 -82.69,20.08 -81.54,25.23 -151.82,54.2 -23.26,9.63 -45.79,24.33 -66.69,36.24 -50.11,28.65 -132.88,101.7 -167.73,147.66 -153.86,203.48 -179.98,384.76 -179.98,656.57l0 263.88 -437.57 0c-26.21,0 -57.96,36.41 -57.96,83.58l0 508.43c0,42.28 22.61,83.58 64.4,83.58l431.13 0 0 1325.14 -1096.35 0c-156.14,0 -283.8,-127.58 -283.8,-283.72l0 -2887.8c0,-156.14 127.66,-283.8 283.8,-283.8z"/>
 </g>
</svg>
