<?xml version="1.0" encoding="UTF-8"?>
<!DOCTYPE svg PUBLIC "-//W3C//DTD SVG 1.1//EN" "http://www.w3.org/Graphics/SVG/1.1/DTD/svg11.dtd">
<!-- Creator: CorelDRAW 2021 (64-Bit) -->
<svg xmlns="http://www.w3.org/2000/svg" xml:space="preserve" width="42.3332mm" height="42.3332mm" version="1.1" style="shape-rendering:geometricPrecision; text-rendering:geometricPrecision; image-rendering:optimizeQuality; fill-rule:evenodd; clip-rule:evenodd"
viewBox="0 0 4233.32 4233.32"
 xmlns:xlink="http://www.w3.org/1999/xlink"
 xmlns:xodm="http://www.corel.com/coreldraw/odm/2003">
 <defs>
  <style type="text/css">
   <![CDATA[
    .fil0 {fill:#B2B3B3;fill-rule:nonzero}
   ]]>
  </style>
 </defs>
 <g id="Слой_x0020_1">
  <metadata id="CorelCorpID_0Corel-Layer"/>
  <path class="fil0" d="M2116.81 56.42c381.2,0 728.27,155.35 979,406.72 251.69,250.41 406.73,596.85 406.73,979.32 0,123.14 -17.23,244.99 -48.81,362.38 -31.26,118.99 -80.07,232.87 -141.63,338.14l-1195.61 2033.93 -1169.44 -1992.14c-68.91,-107.18 -123.45,-227.13 -160.78,-355.68 -35.72,-124.09 -55.5,-254.56 -55.5,-386.63 0,-381.52 155.67,-728.27 406.08,-979 251.69,-251.37 598.44,-407.04 979.96,-407.04zm641.51 743.58c-163.33,-163.96 -390.46,-265.08 -641.51,-265.08 -250.73,0 -478.49,101.76 -642.14,265.4 -163.65,163.65 -265.41,391.41 -265.41,642.14 0,89.96 12.44,175.77 35.09,253.93 23.61,81.66 59.98,160.13 105.91,232.55 84.54,232.54 606.1,1032.59 766.55,1306.29l784.74 -1335.32c38.91,-66.36 70.17,-139.72 90.91,-217.88 20.73,-74.33 31.58,-154.71 31.58,-239.57 0,-250.73 -101.76,-477.85 -265.72,-642.46z"/>
 </g>
</svg>
