<?xml version="1.0" encoding="UTF-8"?>
<!DOCTYPE svg PUBLIC "-//W3C//DTD SVG 1.1//EN" "http://www.w3.org/Graphics/SVG/1.1/DTD/svg11.dtd">
<!-- Creator: CorelDRAW 2021 (64-Bit) -->
<svg xmlns="http://www.w3.org/2000/svg" xml:space="preserve" width="51mm" height="10mm" version="1.1" style="shape-rendering:geometricPrecision; text-rendering:geometricPrecision; image-rendering:optimizeQuality; fill-rule:evenodd; clip-rule:evenodd"
viewBox="0 0 5100 1000"
 xmlns:xlink="http://www.w3.org/1999/xlink"
 xmlns:xodm="http://www.corel.com/coreldraw/odm/2003">
 <defs>
  <style type="text/css">
   <![CDATA[
    .fil0 {fill:#FEFEFE}
    .fil1 {fill:#FEFEFE;fill-rule:nonzero}
   ]]>
  </style>
 </defs>
 <g id="Слой_x0020_1">
  <metadata id="CorelCorpID_0Corel-Layer"/>
  <path class="fil0" d="M62.46 47.32l57.34 0c11.16,0 20.28,9.11 20.28,20.27l0 487.75c0,11.16 -9.12,20.28 -20.28,20.28l-57.34 0c-11.15,0 -20.27,-9.12 -20.27,-20.28l0 -487.75c0,-11.16 9.12,-20.27 20.27,-20.27zm2837.18 413.99c20.29,-8.88 38.54,-21.89 53.79,-38.03 15.57,-16.45 28.13,-36.24 36.71,-58.28 7.08,-18.22 11.44,-38.02 12.53,-58.83 -0.68,-2.02 -1.04,-4.18 -1.04,-6.41l0 -233.65c0,-11.04 9.03,-20.08 20.08,-20.08l56.77 0c11.05,0 20.08,9.04 20.08,20.08l0 229.6 0.2 0c0,36.8 -7,72.01 -19.66,104.16 -13.14,33.4 -32.46,63.57 -56.44,88.9 -24.26,25.65 -53.25,46.33 -85.45,60.44 -9.69,4.83 -20.27,8.88 -31.73,12.08 -36.26,10.09 -34.3,-10.73 -34.41,-25.93l0 -35.3c-0.6,-15.66 2.21,-27.22 28.57,-38.75zm-96.3 -0.41c-20.28,-8.88 -38.53,-21.9 -53.8,-38.03 -15.56,-16.45 -28.12,-36.24 -36.69,-58.29 -7.08,-18.21 -11.44,-38.02 -12.55,-58.83 0.69,-2.01 1.06,-4.17 1.06,-6.41l0 -233.64c0,-11.05 -9.03,-20.08 -20.08,-20.08l-56.78 0c-11.04,0 -20.08,9.03 -20.08,20.08l0 229.6 -0.2 0c0,36.79 7.01,72 19.67,104.16 13.14,33.4 32.46,63.57 56.42,88.9 24.26,25.64 53.27,46.33 85.47,60.44 9.68,4.82 20.25,8.88 31.73,12.08 36.24,10.09 34.3,-10.73 34.39,-25.94l0 -35.3c0.62,-15.64 -2.19,-27.22 -28.56,-38.74zm-1132.74 -125.25l135.36 0 -67.68 -173.08 -67.68 173.08zm173.63 97.89l-211.92 0 -48.77 124.74c-2.91,7.43 -11.36,13.52 -18.81,13.52l-63.91 0c-7.45,0 -11.14,-6.09 -8.24,-13.52l194.93 -498.49c2.74,-6.98 10.32,-12.76 17.4,-13.45l0.05 0 0.3 -0.03 0.03 0 0.33 -0.02 0.01 0 0.34 -0.02 0 0 0.34 0 63.93 0 0.34 0 0.01 0 0.34 0.02 0.01 0 0.32 0.02 0.04 0 0.28 0.03 0.07 0c7.06,0.69 14.66,6.48 17.39,13.45l194.93 498.49c2.91,7.43 -0.78,13.52 -8.23,13.52l-63.93 0c-7.43,0 -15.89,-6.09 -18.79,-13.52l-48.79 -124.74zm2385.04 156.41c35.66,0 69.71,-7.51 100.78,-21.11 32.2,-14.11 61.21,-34.79 85.47,-60.44 23.97,-25.35 43.29,-55.51 56.42,-88.91 12.68,-32.15 19.67,-67.35 19.67,-104.15 0,-36.79 -6.99,-71.99 -19.67,-104.14 -13.13,-33.39 -32.45,-63.56 -56.42,-88.91 -24.26,-25.64 -53.27,-46.33 -85.47,-60.44 -31.07,-13.6 -65.12,-21.11 -100.78,-21.11 -35.67,0 -69.72,7.51 -100.79,21.11 -32.2,14.11 -61.21,34.8 -85.47,60.44 -23.96,25.35 -43.28,55.52 -56.42,88.91 -12.66,32.15 -19.67,67.35 -19.67,104.14 0,36.8 7.01,72 19.67,104.15 13.14,33.4 32.46,63.56 56.42,88.91 24.26,25.65 53.27,46.33 85.47,60.44 31.07,13.6 65.12,21.11 100.79,21.11zm0 -453.41c22.42,0 43.79,4.71 63.23,13.22 20.27,8.88 38.54,21.9 53.79,38.03 15.56,16.46 28.13,36.25 36.69,58.29 8.27,21.23 12.83,44.65 12.83,69.26 0,24.64 -4.56,48.04 -12.83,69.27 -8.56,22.06 -21.13,41.85 -36.69,58.3 -15.27,16.12 -33.52,29.15 -53.79,38.03 -19.44,8.5 -40.81,13.21 -63.23,13.21 -22.41,0 -43.8,-4.71 -63.23,-13.21 -20.28,-8.88 -38.53,-21.91 -53.8,-38.03 -15.56,-16.45 -28.12,-36.24 -36.69,-58.3 -8.25,-21.23 -12.83,-44.63 -12.83,-69.27 0,-24.61 4.58,-48.03 12.83,-69.26 8.56,-22.04 21.13,-41.83 36.69,-58.29 15.27,-16.13 33.52,-29.15 53.8,-38.03 19.43,-8.51 40.82,-13.22 63.23,-13.22zm437.38 -85.73c2.51,1.27 4.8,3.1 6.65,5.44l271 341.34 0 -334.39c0,-11.15 9.12,-20.27 20.27,-20.27l57.34 0c11.16,0 20.28,9.12 20.28,20.27l0 487.76c0,11.16 -9.12,20.27 -20.28,20.27l-57.34 0c-9.51,0 -17.55,-6.62 -19.7,-15.49l-270.78 -341.07 0 339.56c0,11.16 -9.11,20.28 -20.27,20.28l-57.34 0c-11.15,0 -20.27,-9.12 -20.27,-20.28l0 -487.75c0,-11.16 9.12,-20.27 20.27,-20.27l57.34 0c4.86,0 9.33,1.73 12.83,4.6zm-1375.92 -0.59c2.5,1.28 4.8,3.09 6.65,5.45l270.99 341.34 0 -334.39c0,-11.14 9.12,-20.27 20.27,-20.27l57.34 0c11.16,0 20.28,9.13 20.28,20.27l0 487.76c0,11.15 -9.12,20.27 -20.28,20.27l-57.34 0c-9.51,0 -17.55,-6.64 -19.7,-15.5l-270.78 -341.08 0 339.58c0,11.16 -9.11,20.27 -20.27,20.27l-57.34 0c-11.15,0 -20.27,-9.11 -20.27,-20.27l0 -487.76c0,-11.15 9.12,-20.27 20.27,-20.27l57.34 0c4.86,0 9.33,1.74 12.84,4.6zm509.25 -0.19l57.34 0c11.15,0 20.27,9.12 20.27,20.26l0 487.77c0,11.14 -9.12,20.26 -20.27,20.26l-57.34 0c-11.16,0 -20.28,-9.12 -20.28,-20.26l0 -487.77c0,-11.14 9.12,-20.26 20.28,-20.26zm-1582.74 505.86l0 -57.34c0,-11.16 9.1,-20.27 20.26,-20.27l175.01 0c11.16,0 20.27,9.11 20.27,20.27l0 57.34c0,11.16 -9.11,20.27 -20.27,20.27l-175.01 0c-11.16,0 -20.26,-9.11 -20.26,-20.27zm-126.05 -508.03l57.34 0c11.16,0 20.27,9.12 20.27,20.28l0 487.75c0,11.16 -9.11,20.27 -20.27,20.27l-57.34 0c-11.16,0 -20.27,-9.11 -20.27,-20.27l0 -487.75c0,-11.16 9.11,-20.28 20.27,-20.28zm-919.33 298.25l0 -57.34c0,-11.14 9.12,-20.26 20.28,-20.26l229.48 0c1.26,0 2.48,0.11 3.68,0.32l19.52 0c4.17,0 7.6,3.22 7.95,7.31 0.68,5.55 1.22,11.31 1.58,17.27 0.36,6.03 0.55,11.94 0.55,17.7 0,36.79 -6.99,72 -19.66,104.15 -13.14,33.39 -32.45,63.56 -56.42,88.89 -24.27,25.66 -53.26,46.34 -85.46,60.44 -31.09,13.61 -65.14,21.12 -100.8,21.12 -35.66,0 -69.71,-7.51 -100.79,-21.12 -32.2,-14.1 -61.21,-34.78 -85.47,-60.44 -23.96,-25.33 -43.28,-55.5 -56.42,-88.89 -12.66,-32.15 -19.66,-67.36 -19.66,-104.15 0,-36.8 7,-72.01 19.66,-104.17 13.14,-33.38 32.46,-63.55 56.42,-88.89 24.26,-25.65 53.27,-46.32 85.47,-60.43 31.08,-13.6 65.13,-21.11 100.79,-21.11 35.66,0 69.71,7.51 100.8,21.11 32.2,14.11 61.19,34.78 85.46,60.43 15.67,16.58 29.35,35.21 40.61,55.45 11.08,19.94 19.85,41.46 25.88,64.08 1.11,4.25 -1.43,8.62 -5.68,9.74 -0.68,0.17 -1.36,0.26 -2.03,0.26l-83.64 0.01c-3.66,0 -6.75,-2.46 -7.68,-5.83 -4.21,-10.79 -9.4,-21.07 -15.46,-30.71 -6.2,-9.9 -13.35,-19.12 -21.27,-27.5l-0.37 -0.43c-15.18,-15.93 -33.29,-28.8 -53.39,-37.6 -19.43,-8.51 -40.81,-13.21 -63.23,-13.21 -22.41,0 -43.8,4.7 -63.23,13.21 -20.28,8.87 -38.53,21.9 -53.8,38.03 -15.55,16.45 -28.12,36.24 -36.69,58.29 -8.25,21.22 -12.82,44.64 -12.82,69.27 0,24.62 4.57,48.03 12.82,69.27 8.58,22.04 21.14,41.83 36.69,58.28 15.27,16.14 33.52,29.15 53.8,38.03 19.43,8.52 40.82,13.22 63.23,13.22 22.42,0 43.8,-4.7 63.23,-13.22 20.27,-8.88 38.54,-21.89 53.79,-38.03 15.56,-16.45 28.13,-36.24 36.7,-58.28 1.77,-4.57 3.37,-9.24 4.81,-14l-158.95 0c-11.16,0 -20.28,-9.1 -20.28,-20.27zm-595.03 -85.52l231.78 0c11.15,0 20.27,9.12 20.27,20.29l0 57.34c0,11.14 -9.12,20.26 -20.27,20.26l-231.78 0 0 117.33 283.11 0c11.15,0 20.27,9.12 20.27,20.27l0 57.34c0,11.16 -9.12,20.28 -20.27,20.28l-303.4 0 -57.34 0c-11.14,0 -20.27,-9.12 -20.27,-20.28l0 -57.34 0 -157.86 0 -57.34 0 -157.87 0 -57.34c0,-11.16 9.13,-20.27 20.27,-20.27l57.34 0 303.4 0c11.15,0 20.27,9.11 20.27,20.27l0 57.34c0,11.15 -9.12,20.27 -20.27,20.27l-283.11 0 0 117.31zm-388.33 294.75l0 -57.35c0,-11.14 9.12,-20.26 20.27,-20.26l175.02 0c11.15,0 20.27,9.12 20.27,20.26l0 57.35c0,11.16 -9.12,20.28 -20.27,20.28l-175.02 0c-11.15,0 -20.27,-9.12 -20.27,-20.28z"/>
  <path class="fil1" d="M241.33 722.6c32.4,0 60.04,11.43 82.92,34.31 22.87,22.88 34.28,50.5 34.28,82.91 0,32.39 -11.41,60.01 -34.28,82.89 -22.88,22.87 -50.52,34.31 -82.92,34.31 -30.19,0 -56.34,-10.11 -78.45,-30.36 -22.12,-20.26 -34.58,-45.27 -37.42,-75.02l-41.06 0 0 103.09 -25.61 0 0 -229.83 25.61 0 0 102.78 41.06 0c3.04,-29.55 15.59,-54.46 37.57,-74.7 22,-20.23 48.11,-30.38 78.3,-30.38zm-64.83 183.69c17.62,17.84 39.22,26.77 64.83,26.77 25.63,0 47.29,-8.93 65.02,-26.77 17.73,-17.83 26.6,-39.99 26.6,-66.47 0,-26.49 -8.87,-48.66 -26.6,-66.48 -17.73,-17.84 -39.39,-26.76 -65.02,-26.76 -25.61,0 -47.21,8.92 -64.83,26.76 -17.61,17.82 -26.43,39.99 -26.43,66.48 0,26.48 8.82,48.64 26.43,66.47zm241.81 -181.39l72.55 0c29.77,0 53.94,7.55 72.56,22.66 18.61,15.11 27.92,35.68 27.92,61.71 0,26.05 -9.31,46.64 -27.92,61.73 -18.62,15.1 -42.79,22.67 -72.56,22.67l-46.94 0 0 61.06 -25.61 0 0 -229.83zm25.61 144.79l48.59 0c21.43,0 39.23,-5.03 53.34,-15.1 14.12,-10.06 21.19,-25.17 21.19,-45.32 0,-19.9 -7.07,-34.95 -21.19,-45.12 -14.11,-10.19 -31.91,-15.29 -53.34,-15.29l-48.59 0 0 120.83zm377.89 85.04l-25.62 0 0 -179.58 -133.95 179.58 -14.46 0 0 -229.83 25.62 0 0 179.59 134.29 -179.59 14.12 0 0 229.83zm173.34 -232.13c34.58,0 63.47,12.82 86.67,38.42l-16.75 15.11c-19.03,-19.7 -42.34,-29.55 -69.92,-29.55 -25.62,0 -47.22,8.92 -64.85,26.76 -17.62,17.82 -26.42,39.99 -26.42,66.48 0,26.48 8.8,48.64 26.42,66.47 17.63,17.84 39.23,26.77 64.85,26.77 28.02,0 51.34,-9.85 69.92,-29.55l16.75 15.75c-22.98,25.18 -51.87,37.76 -86.67,37.76 -32.4,0 -59.97,-11.44 -82.75,-34.31 -22.75,-22.88 -34.15,-50.5 -34.15,-82.89 0,-32.41 11.4,-60.03 34.15,-82.91 22.78,-22.88 50.35,-34.31 82.75,-34.31zm217.34 26.26l0 205.87 -25.61 0 0 -205.87 -71.25 0 0 -23.96 167.76 0 0 23.96 -70.9 0zm396.91 205.87l-25.6 0 0 -205.87 -121.14 0 0 205.87 -25.62 0 0 -229.83 172.36 0 0 229.83zm90.61 -197.82c22.77,-22.88 50.35,-34.31 82.74,-34.31 32.39,0 60.03,11.43 82.88,34.31 22.88,22.88 34.32,50.5 34.32,82.91 0,32.39 -11.44,60.01 -34.32,82.89 -22.85,22.87 -50.49,34.31 -82.88,34.31 -32.39,0 -59.97,-11.44 -82.74,-34.31 -22.75,-22.88 -34.15,-50.5 -34.15,-82.89 0,-32.41 11.4,-60.03 34.15,-82.91zm147.75 16.43c-17.74,-17.84 -39.39,-26.76 -65.01,-26.76 -25.61,0 -47.22,8.92 -64.84,26.76 -17.64,17.82 -26.43,39.99 -26.43,66.48 0,26.48 8.79,48.64 26.43,66.47 17.62,17.84 39.23,26.77 64.84,26.77 25.62,0 47.27,-8.93 65.01,-26.77 17.73,-17.83 26.6,-39.99 26.6,-66.47 0,-26.49 -8.87,-48.66 -26.6,-66.48zm386.75 181.39l-25.61 0 0 -104.42 -122.46 0 0 104.42 -25.61 0 0 -229.83 25.61 0 0 101.46 122.46 0 0 -101.46 25.61 0 0 229.83zm96.21 -128.03l112.6 0 0 23.95 -112.6 0 0 80.11 119.83 0 0 23.97 -145.45 0 0 -229.83 145.45 0 0 23.96 -119.83 0 0 77.84zm395.29 170.37l-25.6 0 0 -42.34 -193.04 0 0 42.34 -25.61 0 0 -66.31 29.88 0 85.35 -205.86 14.45 0 85.02 205.86 29.55 0 0 66.31zm-122.11 -224.23l-65.02 157.92 130 0 -64.98 -157.92zm170.37 -47.94l83.39 0c50.79,0 76.17,19.7 76.17,59.09 0,25.85 -11.6,42.58 -34.79,50.25 14.86,2.85 26.43,9.31 34.63,19.36 8.21,10.08 12.31,22.55 12.31,37.43 0,42.47 -26.7,63.7 -80.11,63.7l-91.6 0 0 -229.83zm25.61 23.96l0 75.85 60.07 0c33.07,0 49.58,-12.58 49.58,-37.74 0,-11.61 -3.45,-20.85 -10.35,-27.76 -6.88,-6.9 -19.97,-10.35 -39.23,-10.35l-60.07 0zm0 97.84l0 84.06 70.59 0c34.15,0 51.21,-14.01 51.21,-42.03 0,-12.89 -4.26,-23.15 -12.79,-30.69 -8.55,-7.55 -21.35,-11.34 -38.42,-11.34l-70.59 0zm372.31 108.03l-25.62 0 0 -179.58 -133.94 179.58 -14.45 0 0 -229.83 25.61 0 0 179.59 134.28 -179.59 14.12 0 0 229.83zm339.47 0l-46.63 -72.9c-8.32,-12.9 -15.09,-21.43 -20.35,-25.59 -5.26,-4.16 -13.36,-6.25 -24.3,-6.25l-26.59 0 0 104.74 -25.62 0 0 -104.74 -26.57 0c-10.95,0 -19,2.09 -24.16,6.25 -5.11,4.16 -11.98,12.69 -20.5,25.59l-46.61 72.9 -29.24 0 52.87 -81.77c7.65,-11.81 13.84,-20.28 18.54,-25.42 4.7,-5.15 10.02,-8.7 15.94,-10.69 -4.6,-2.17 -9.1,-5.72 -13.47,-10.66 -4.37,-4.91 -10.19,-12.76 -17.4,-23.48l-50.56 -77.81 29.21 0 44.33 68.97c8.53,13.12 15.37,21.7 20.51,25.76 5.15,4.06 13.2,6.08 24.13,6.08l22.98 0 0 -100.81 25.62 0 0 100.81 22.98 0c11.16,0 19.32,-2.09 24.46,-6.26 5.15,-4.15 11.88,-12.68 20.18,-25.58l44.33 -68.97 29.21 0 -50.22 77.81c-13.14,19.27 -23.42,30.65 -30.86,34.14 5.68,1.99 10.89,5.48 15.59,10.52 4.71,5.04 11,13.58 18.88,25.59l52.53 81.77 -29.21 0zm252.47 0l-25.61 0 0 -179.58 -133.96 179.58 -14.45 0 0 -229.83 25.63 0 0 179.59 134.28 -179.59 14.11 0 0 229.83zm290.22 0l-25.6 0 0 -180.59 -85.7 109.01 -85.68 -109.01 0 180.59 -25.62 0 0 -229.83 14.45 0 96.85 123.45 96.86 -123.45 14.44 0 0 229.83zm93.57 -197.82c22.77,-22.88 50.34,-34.31 82.73,-34.31 32.4,0 60.04,11.43 82.89,34.31 22.87,22.88 34.31,50.5 34.31,82.91 0,32.39 -11.44,60.01 -34.31,82.89 -22.85,22.87 -50.49,34.31 -82.89,34.31 -32.39,0 -59.96,-11.44 -82.73,-34.31 -22.75,-22.88 -34.15,-50.5 -34.15,-82.89 0,-32.41 11.4,-60.03 34.15,-82.91zm147.74 16.43c-17.73,-17.84 -39.39,-26.76 -65.01,-26.76 -25.61,0 -47.21,8.92 -64.83,26.76 -17.64,17.82 -26.43,39.99 -26.43,66.48 0,26.48 8.79,48.64 26.43,66.47 17.62,17.84 39.22,26.77 64.83,26.77 25.62,0 47.28,-8.93 65.01,-26.77 17.74,-17.83 26.61,-39.99 26.61,-66.47 0,-26.49 -8.87,-48.66 -26.61,-66.48zm214.4 -50.74c34.58,0 63.46,12.82 86.67,38.42l-16.76 15.11c-19.02,-19.7 -42.33,-29.55 -69.91,-29.55 -25.62,0 -47.22,8.92 -64.85,26.76 -17.62,17.82 -26.42,39.99 -26.42,66.48 0,26.48 8.8,48.64 26.42,66.47 17.63,17.84 39.23,26.77 64.85,26.77 28.02,0 51.33,-9.85 69.91,-29.55l16.76 15.75c-22.98,25.18 -51.88,37.76 -86.67,37.76 -32.4,0 -59.97,-11.44 -82.75,-34.31 -22.75,-22.88 -34.15,-50.5 -34.15,-82.89 0,-32.41 11.4,-60.03 34.15,-82.91 22.78,-22.88 50.35,-34.31 82.75,-34.31zm217.34 26.26l0 205.87 -25.61 0 0 -205.87 -71.25 0 0 -23.96 167.76 0 0 23.96 -70.9 0zm294.16 205.87l-25.61 0 0 -179.58 -133.96 179.58 -14.45 0 0 -229.83 25.63 0 0 179.59 134.28 -179.59 14.11 0 0 229.83z"/>
 </g>
</svg>
