<?xml version="1.0" encoding="UTF-8"?>
<!DOCTYPE svg PUBLIC "-//W3C//DTD SVG 1.1//EN" "http://www.w3.org/Graphics/SVG/1.1/DTD/svg11.dtd">
<!-- Creator: CorelDRAW 2021 (64-Bit) -->
<svg xmlns="http://www.w3.org/2000/svg" xml:space="preserve" width="42.3332mm" height="8.4666mm" version="1.1" style="shape-rendering:geometricPrecision; text-rendering:geometricPrecision; image-rendering:optimizeQuality; fill-rule:evenodd; clip-rule:evenodd"
viewBox="0 0 4233.32 846.66"
 xmlns:xlink="http://www.w3.org/1999/xlink"
 xmlns:xodm="http://www.corel.com/coreldraw/odm/2003">
 <defs>
  <style type="text/css">
   <![CDATA[
    .fil0 {fill:#FEFEFE}
    .fil1 {fill:#FEFEFE;fill-rule:nonzero}
   ]]>
  </style>
 </defs>
 <g id="Слой_x0020_1">
  <metadata id="CorelCorpID_0Corel-Layer"/>
  <path class="fil0" d="M234.98 65.11l45.52 0c8.86,0 16.1,7.23 16.1,16.09l0 387.2c0,8.86 -7.24,16.1 -16.1,16.1l-45.52 0c-8.85,0 -16.09,-7.24 -16.09,-16.1l0 -387.2c0,-8.86 7.24,-16.09 16.09,-16.09zm2252.3 328.65c16.1,-7.05 30.59,-17.38 42.7,-30.19 12.36,-13.06 22.33,-28.77 29.14,-46.27 5.62,-14.46 9.08,-30.18 9.95,-46.7 -0.54,-1.6 -0.83,-3.32 -0.83,-5.09l0 -185.48c0,-8.77 7.17,-15.94 15.94,-15.94l45.07 0c8.77,0 15.94,7.17 15.94,15.94l0 182.27 0.16 0c0,29.21 -5.56,57.16 -15.61,82.68 -10.43,26.52 -25.77,50.47 -44.8,70.58 -19.26,20.36 -42.28,36.78 -67.84,47.98 -7.69,3.83 -16.09,7.05 -25.19,9.59 -28.78,8.01 -27.23,-8.52 -27.31,-20.59l0 -28.02c-0.48,-12.43 1.75,-21.61 22.68,-30.76zm-76.45 -0.33c-16.1,-7.05 -30.59,-17.38 -42.71,-30.19 -12.35,-13.06 -22.32,-28.77 -29.13,-46.27 -5.62,-14.46 -9.08,-30.18 -9.96,-46.7 0.55,-1.6 0.84,-3.31 0.84,-5.09l0 -185.48c0,-8.77 -7.17,-15.94 -15.94,-15.94l-45.07 0c-8.77,0 -15.94,7.17 -15.94,15.94l0 182.27 -0.16 0c0,29.21 5.56,57.16 15.61,82.69 10.43,26.51 25.77,50.46 44.79,70.57 19.26,20.36 42.29,36.78 67.85,47.98 7.69,3.83 16.08,7.05 25.19,9.59 28.77,8.01 27.23,-8.52 27.3,-20.59l0 -28.02c0.49,-12.42 -1.74,-21.61 -22.67,-30.76zm-899.23 -99.43l107.46 0 -53.73 -137.4 -53.73 137.4zm137.84 77.71l-168.23 0 -38.72 99.03c-2.31,5.9 -9.02,10.73 -14.93,10.73l-50.74 0c-5.91,0 -8.84,-4.83 -6.54,-10.73l154.75 -395.73c2.17,-5.54 8.19,-10.13 13.81,-10.68l0.04 0 0.24 -0.02 0.02 0 0.26 -0.02 0.01 0 0.27 -0.01 0 0 0.27 0 50.75 0 0.27 0 0.01 0 0.27 0.01 0.01 0 0.25 0.02 0.03 0 0.23 0.02 0.05 0c5.61,0.55 11.64,5.15 13.81,10.68l154.74 395.73c2.31,5.9 -0.62,10.73 -6.53,10.73l-50.75 0c-5.9,0 -12.62,-4.83 -14.92,-10.73l-38.73 -99.03zm1893.36 124.17c28.31,0 55.34,-5.96 80.01,-16.76 25.56,-11.2 48.59,-27.62 67.85,-47.98 19.03,-20.12 34.36,-44.07 44.79,-70.58 10.06,-25.52 15.61,-53.47 15.61,-82.68 0,-29.21 -5.55,-57.15 -15.61,-82.67 -10.43,-26.51 -25.76,-50.46 -44.79,-70.58 -19.26,-20.36 -42.29,-36.78 -67.85,-47.98 -24.67,-10.8 -51.7,-16.76 -80.01,-16.76 -28.31,0 -55.34,5.96 -80.01,16.76 -25.56,11.2 -48.59,27.62 -67.85,47.98 -19.02,20.12 -34.36,44.07 -44.79,70.58 -10.05,25.52 -15.61,53.46 -15.61,82.67 0,29.21 5.56,57.16 15.61,82.68 10.43,26.51 25.77,50.46 44.79,70.58 19.26,20.36 42.29,36.78 67.85,47.98 24.67,10.8 51.7,16.76 80.01,16.76zm0 -359.94c17.8,0 34.77,3.74 50.2,10.49 16.09,7.05 30.59,17.39 42.7,30.19 12.35,13.07 22.33,28.78 29.13,46.28 6.56,16.85 10.18,35.44 10.18,54.98 0,19.56 -3.62,38.14 -10.18,54.99 -6.8,17.51 -16.78,33.22 -29.13,46.28 -12.12,12.8 -26.61,23.14 -42.7,30.19 -15.43,6.75 -32.4,10.49 -50.2,10.49 -17.79,0 -34.77,-3.74 -50.19,-10.49 -16.1,-7.05 -30.59,-17.39 -42.71,-30.19 -12.35,-13.06 -22.32,-28.77 -29.13,-46.28 -6.55,-16.85 -10.18,-35.43 -10.18,-54.99 0,-19.54 3.63,-38.13 10.18,-54.98 6.8,-17.5 16.78,-33.21 29.13,-46.28 12.12,-12.8 26.61,-23.14 42.71,-30.19 15.42,-6.75 32.4,-10.49 50.19,-10.49zm347.22 -68.06c1.99,1.01 3.81,2.46 5.28,4.32l215.13 270.97 0 -265.45c0,-8.85 7.24,-16.09 16.09,-16.09l45.52 0c8.86,0 16.1,7.24 16.1,16.09l0 387.21c0,8.86 -7.24,16.09 -16.1,16.09l-45.52 0c-7.55,0 -13.93,-5.26 -15.64,-12.3l-214.96 -270.76 0 269.56c0,8.86 -7.23,16.1 -16.09,16.1l-45.52 0c-8.85,0 -16.09,-7.24 -16.09,-16.1l0 -387.2c0,-8.86 7.24,-16.09 16.09,-16.09l45.52 0c3.86,0 7.41,1.37 10.19,3.65zm-1092.28 -0.47c1.99,1.02 3.81,2.46 5.28,4.33l215.13 270.97 0 -265.45c0,-8.85 7.24,-16.09 16.09,-16.09l45.52 0c8.86,0 16.1,7.24 16.1,16.09l0 387.21c0,8.85 -7.24,16.09 -16.1,16.09l-45.52 0c-7.55,0 -13.93,-5.27 -15.64,-12.31l-214.96 -270.76 0 269.57c0,8.86 -7.23,16.09 -16.09,16.09l-45.52 0c-8.85,0 -16.09,-7.23 -16.09,-16.09l0 -387.21c0,-8.85 7.24,-16.09 16.09,-16.09l45.52 0c3.86,0 7.41,1.38 10.19,3.65zm404.27 -0.15l45.52 0c8.85,0 16.09,7.24 16.09,16.09l0 387.21c0,8.85 -7.24,16.09 -16.09,16.09l-45.52 0c-8.86,0 -16.1,-7.24 -16.1,-16.09l0 -387.21c0,-8.85 7.24,-16.09 16.1,-16.09zm-1256.46 401.58l0 -45.52c0,-8.86 7.23,-16.09 16.09,-16.09l138.93 0c8.86,0 16.09,7.23 16.09,16.09l0 45.52c0,8.86 -7.23,16.09 -16.09,16.09l-138.93 0c-8.86,0 -16.09,-7.23 -16.09,-16.09zm-100.06 -403.3l45.52 0c8.86,0 16.09,7.24 16.09,16.1l0 387.2c0,8.86 -7.23,16.09 -16.09,16.09l-45.52 0c-8.86,0 -16.09,-7.23 -16.09,-16.09l0 -387.2c0,-8.86 7.23,-16.1 16.09,-16.1zm-729.81 236.77l0 -45.52c0,-8.85 7.24,-16.09 16.1,-16.09l182.17 0c1,0 1.97,0.09 2.92,0.26l15.5 0c3.31,0 6.03,2.55 6.31,5.8 0.54,4.41 0.97,8.98 1.25,13.71 0.29,4.79 0.44,9.48 0.44,14.05 0,29.21 -5.55,57.16 -15.61,82.68 -10.43,26.51 -25.76,50.46 -44.79,70.57 -19.26,20.37 -42.28,36.78 -67.84,47.98 -24.68,10.8 -51.71,16.76 -80.02,16.76 -28.31,0 -55.34,-5.96 -80.01,-16.76 -25.56,-11.2 -48.59,-27.61 -67.85,-47.98 -19.02,-20.11 -34.36,-44.06 -44.79,-70.57 -10.05,-25.52 -15.61,-53.47 -15.61,-82.68 0,-29.21 5.56,-57.16 15.61,-82.69 10.43,-26.5 25.77,-50.45 44.79,-70.57 19.26,-20.36 42.29,-36.77 67.85,-47.97 24.67,-10.8 51.7,-16.76 80.01,-16.76 28.31,0 55.34,5.96 80.02,16.76 25.56,11.2 48.58,27.61 67.84,47.97 12.44,13.16 23.3,27.95 32.24,44.02 8.8,15.83 15.76,32.91 20.55,50.87 0.88,3.37 -1.14,6.84 -4.51,7.73 -0.54,0.14 -1.08,0.21 -1.61,0.21l-66.4 0.01c-2.91,0 -5.36,-1.96 -6.1,-4.63 -3.34,-8.57 -7.46,-16.73 -12.27,-24.38 -4.92,-7.86 -10.6,-15.18 -16.89,-21.83l-0.29 -0.34c-12.05,-12.65 -26.43,-22.87 -42.38,-29.85 -15.43,-6.76 -32.4,-10.49 -50.2,-10.49 -17.79,0 -34.77,3.73 -50.19,10.49 -16.1,7.04 -30.59,17.38 -42.71,30.19 -12.35,13.06 -22.33,28.77 -29.13,46.27 -6.55,16.85 -10.18,35.44 -10.18,54.99 0,19.55 3.63,38.13 10.18,54.99 6.81,17.5 16.78,33.21 29.13,46.27 12.12,12.81 26.61,23.14 42.71,30.19 15.42,6.76 32.4,10.49 50.19,10.49 17.8,0 34.77,-3.73 50.2,-10.49 16.09,-7.05 30.59,-17.38 42.7,-30.19 12.35,-13.06 22.33,-28.77 29.13,-46.27 1.41,-3.63 2.68,-7.33 3.82,-11.11l-126.18 0c-8.86,0 -16.1,-7.23 -16.1,-16.09zm-472.37 -67.89l184 0c8.85,0 16.09,7.24 16.09,16.1l0 45.52c0,8.85 -7.24,16.09 -16.09,16.09l-184 0 0 93.14 224.75 0c8.85,0 16.09,7.24 16.09,16.09l0 45.52c0,8.86 -7.24,16.1 -16.09,16.1l-240.85 0 -45.52 0c-8.85,0 -16.09,-7.24 -16.09,-16.1l0 -45.52 0 -125.32 0 -45.52 0 -125.32 0 -45.52c0,-8.86 7.24,-16.09 16.09,-16.09l45.52 0 240.85 0c8.85,0 16.09,7.23 16.09,16.09l0 45.52c0,8.85 -7.24,16.09 -16.09,16.09l-224.75 0 0 93.13zm-308.27 233.98l0 -45.52c0,-8.85 7.24,-16.09 16.09,-16.09l138.94 0c8.85,0 16.09,7.24 16.09,16.09l0 45.52c0,8.86 -7.24,16.1 -16.09,16.1l-138.94 0c-8.85,0 -16.09,-7.24 -16.09,-16.1z"/>
  <path class="fil1" d="M376.98 601.18c25.72,0 47.66,9.08 65.82,27.24 18.16,18.16 27.22,40.09 27.22,65.82 0,25.71 -9.06,47.64 -27.22,65.8 -18.16,18.16 -40.1,27.24 -65.82,27.24 -23.97,0 -44.73,-8.03 -62.28,-24.1 -17.56,-16.09 -27.45,-35.94 -29.71,-59.56l-32.59 0 0 81.84 -20.33 0 0 -182.45 20.33 0 0 81.59 32.59 0c2.42,-23.46 12.38,-43.23 29.83,-59.3 17.46,-16.06 38.19,-24.12 62.16,-24.12zm-51.47 145.83c13.99,14.16 31.14,21.25 51.47,21.25 20.34,0 37.54,-7.09 51.61,-21.25 14.08,-14.16 21.12,-31.75 21.12,-52.77 0,-21.03 -7.04,-38.63 -21.12,-52.78 -14.07,-14.16 -31.27,-21.24 -51.61,-21.24 -20.33,0 -37.48,7.08 -51.47,21.24 -13.98,14.15 -20.98,31.75 -20.98,52.78 0,21.02 7,38.61 20.98,52.77zm191.96 -144l57.6 0c23.63,0 42.82,5.99 57.6,17.99 14.77,11.99 22.16,28.32 22.16,48.99 0,20.68 -7.39,37.02 -22.16,49 -14.78,11.99 -33.97,18 -57.6,18l-37.27 0 0 48.47 -20.33 0 0 -182.45zm20.33 114.94l38.58 0c17.01,0 31.14,-3.99 42.34,-11.99 11.21,-7.98 16.82,-19.98 16.82,-35.97 0,-15.8 -5.61,-27.75 -16.82,-35.82 -11.2,-8.09 -25.33,-12.14 -42.34,-12.14l-38.58 0 0 95.92zm299.99 67.51l-20.34 0 0 -142.56 -106.33 142.56 -11.48 0 0 -182.45 20.34 0 0 142.57 106.6 -142.57 11.21 0 0 182.45zm137.61 -184.28c27.45,0 50.38,10.18 68.8,30.5l-13.3 12c-15.1,-15.64 -33.61,-23.46 -55.5,-23.46 -20.34,0 -37.49,7.08 -51.48,21.24 -13.99,14.15 -20.98,31.75 -20.98,52.78 0,21.02 6.99,38.61 20.98,52.77 13.99,14.16 31.14,21.25 51.48,21.25 22.24,0 40.75,-7.82 55.5,-23.46l13.3 12.5c-18.24,19.99 -41.18,29.98 -68.8,29.98 -25.72,0 -47.61,-9.08 -65.69,-27.24 -18.06,-18.16 -27.11,-40.09 -27.11,-65.8 0,-25.73 9.05,-47.66 27.11,-65.82 18.08,-18.16 39.97,-27.24 65.69,-27.24zm172.53 20.85l0 163.43 -20.33 0 0 -163.43 -56.56 0 0 -19.02 133.18 0 0 19.02 -56.29 0zm315.09 163.43l-20.32 0 0 -163.43 -96.17 0 0 163.43 -20.34 0 0 -182.45 136.83 0 0 182.45zm71.93 -157.04c18.08,-18.16 39.97,-27.24 65.68,-27.24 25.72,0 47.66,9.08 65.8,27.24 18.16,18.16 27.24,40.09 27.24,65.82 0,25.71 -9.08,47.64 -27.24,65.8 -18.14,18.16 -40.08,27.24 -65.8,27.24 -25.71,0 -47.6,-9.08 -65.68,-27.24 -18.06,-18.16 -27.11,-40.09 -27.11,-65.8 0,-25.73 9.05,-47.66 27.11,-65.82zm117.29 13.04c-14.08,-14.16 -31.27,-21.24 -51.61,-21.24 -20.33,0 -37.48,7.08 -51.47,21.24 -14,14.15 -20.98,31.75 -20.98,52.78 0,21.02 6.98,38.61 20.98,52.77 13.99,14.16 31.14,21.25 51.47,21.25 20.34,0 37.53,-7.09 51.61,-21.25 14.08,-14.16 21.12,-31.75 21.12,-52.77 0,-21.03 -7.04,-38.63 -21.12,-52.78zm307.02 144l-20.33 0 0 -82.89 -97.21 0 0 82.89 -20.33 0 0 -182.45 20.33 0 0 80.54 97.21 0 0 -80.54 20.33 0 0 182.45zm76.38 -101.64l89.39 0 0 19.02 -89.39 0 0 63.59 95.13 0 0 19.03 -115.47 0 0 -182.45 115.47 0 0 19.02 -95.13 0 0 61.79zm313.8 135.25l-20.32 0 0 -33.61 -153.25 0 0 33.61 -20.33 0 0 -52.64 23.72 0 67.76 -163.42 11.47 0 67.49 163.42 23.46 0 0 52.64zm-96.94 -178l-51.61 125.36 103.2 0 -51.59 -125.36zm135.25 -38.06l66.2 0c40.32,0 60.47,15.64 60.47,46.91 0,20.52 -9.21,33.8 -27.62,39.89 11.8,2.26 20.98,7.39 27.49,15.37 6.52,8 9.77,17.9 9.77,29.71 0,33.72 -21.19,50.57 -63.59,50.57l-72.72 0 0 -182.45zm20.33 19.02l0 60.21 47.69 0c26.25,0 39.36,-9.98 39.36,-29.96 0,-9.21 -2.74,-16.55 -8.22,-22.03 -5.46,-5.48 -15.85,-8.22 -31.14,-8.22l-47.69 0zm0 77.67l0 66.73 56.04 0c27.11,0 40.65,-11.12 40.65,-33.36 0,-10.24 -3.38,-18.38 -10.15,-24.37 -6.79,-5.99 -16.95,-9 -30.5,-9l-56.04 0zm295.56 85.76l-20.34 0 0 -142.56 -106.33 142.56 -11.47 0 0 -182.45 20.33 0 0 142.57 106.6 -142.57 11.21 0 0 182.45zm269.49 0l-37.02 -57.87c-6.6,-10.24 -11.98,-17.01 -16.15,-20.32 -4.18,-3.3 -10.61,-4.96 -19.29,-4.96l-21.11 0 0 83.15 -20.34 0 0 -83.15 -21.09 0c-8.7,0 -15.09,1.66 -19.18,4.96 -4.06,3.31 -9.51,10.08 -16.28,20.32l-37 57.87 -23.21 0 41.97 -64.91c6.07,-9.38 10.99,-16.1 14.72,-20.18 3.73,-4.09 7.95,-6.91 12.65,-8.49 -3.65,-1.72 -7.22,-4.54 -10.69,-8.46 -3.47,-3.9 -8.09,-10.13 -13.81,-18.64l-40.14 -61.77 23.19 0 35.19 54.75c6.77,10.42 12.2,17.23 16.28,20.45 4.09,3.22 10.48,4.83 19.16,4.83l18.24 0 0 -80.03 20.34 0 0 80.03 18.24 0c8.86,0 15.34,-1.66 19.42,-4.97 4.09,-3.3 9.43,-10.07 16.02,-20.31l35.19 -54.75 23.19 0 -39.87 61.77c-10.43,15.3 -18.59,24.33 -24.5,27.1 4.51,1.58 8.65,4.35 12.38,8.35 3.74,4 8.73,10.78 14.99,20.32l41.7 64.91 -23.19 0zm200.42 0l-20.33 0 0 -142.56 -106.34 142.56 -11.47 0 0 -182.45 20.34 0 0 142.57 106.6 -142.57 11.2 0 0 182.45zm230.39 0l-20.32 0 0 -143.36 -68.03 86.54 -68.02 -86.54 0 143.36 -20.34 0 0 -182.45 11.47 0 76.89 98 76.89 -98 11.46 0 0 182.45zm74.28 -157.04c18.08,-18.16 39.97,-27.24 65.68,-27.24 25.72,0 47.66,9.08 65.8,27.24 18.16,18.16 27.24,40.09 27.24,65.82 0,25.71 -9.08,47.64 -27.24,65.8 -18.14,18.16 -40.08,27.24 -65.8,27.24 -25.71,0 -47.6,-9.08 -65.68,-27.24 -18.06,-18.16 -27.11,-40.09 -27.11,-65.8 0,-25.73 9.05,-47.66 27.11,-65.82zm117.29 13.04c-14.08,-14.16 -31.27,-21.24 -51.61,-21.24 -20.33,0 -37.48,7.08 -51.47,21.24 -14,14.15 -20.98,31.75 -20.98,52.78 0,21.02 6.98,38.61 20.98,52.77 13.99,14.16 31.14,21.25 51.47,21.25 20.34,0 37.53,-7.09 51.61,-21.25 14.08,-14.16 21.12,-31.75 21.12,-52.77 0,-21.03 -7.04,-38.63 -21.12,-52.78zm170.2 -40.28c27.45,0 50.38,10.18 68.8,30.5l-13.3 12c-15.1,-15.64 -33.61,-23.46 -55.5,-23.46 -20.34,0 -37.49,7.08 -51.48,21.24 -13.99,14.15 -20.98,31.75 -20.98,52.78 0,21.02 6.99,38.61 20.98,52.77 13.99,14.16 31.14,21.25 51.48,21.25 22.24,0 40.75,-7.82 55.5,-23.46l13.3 12.5c-18.24,19.99 -41.18,29.98 -68.8,29.98 -25.72,0 -47.61,-9.08 -65.69,-27.24 -18.06,-18.16 -27.11,-40.09 -27.11,-65.8 0,-25.73 9.05,-47.66 27.11,-65.82 18.08,-18.16 39.97,-27.24 65.69,-27.24zm172.53 20.85l0 163.43 -20.33 0 0 -163.43 -56.56 0 0 -19.02 133.18 0 0 19.02 -56.29 0zm233.52 163.43l-20.33 0 0 -142.56 -106.34 142.56 -11.47 0 0 -182.45 20.34 0 0 142.57 106.6 -142.57 11.2 0 0 182.45z"/>
 </g>
</svg>
