<?xml version="1.0" encoding="UTF-8"?>
<!DOCTYPE svg PUBLIC "-//W3C//DTD SVG 1.1//EN" "http://www.w3.org/Graphics/SVG/1.1/DTD/svg11.dtd">
<!-- Creator: CorelDRAW 2021 (64-Bit) -->
<svg xmlns="http://www.w3.org/2000/svg" xml:space="preserve" width="42.3332mm" height="8.4666mm" version="1.1" style="shape-rendering:geometricPrecision; text-rendering:geometricPrecision; image-rendering:optimizeQuality; fill-rule:evenodd; clip-rule:evenodd"
viewBox="0 0 4233.32 846.66"
 xmlns:xlink="http://www.w3.org/1999/xlink"
 xmlns:xodm="http://www.corel.com/coreldraw/odm/2003">
 <defs>
  <style type="text/css">
   <![CDATA[
    .fil0 {fill:#FEFEFE}
   ]]>
  </style>
 </defs>
 <g id="Слой_x0020_1">
  <metadata id="CorelCorpID_0Corel-Layer"/>
  <path class="fil0" d="M148.13 212.24l45.52 0c8.86,0 16.1,7.23 16.1,16.09l0 387.2c0,8.86 -7.24,16.1 -16.1,16.1l-45.52 0c-8.85,0 -16.09,-7.24 -16.09,-16.1l0 -387.2c0,-8.86 7.24,-16.09 16.09,-16.09zm2252.3 328.65c16.1,-7.05 30.59,-17.38 42.7,-30.19 12.36,-13.06 22.33,-28.77 29.14,-46.27 5.62,-14.46 9.08,-30.18 9.95,-46.7 -0.54,-1.6 -0.83,-3.32 -0.83,-5.09l0 -185.48c0,-8.77 7.17,-15.94 15.94,-15.94l45.07 0c8.77,0 15.94,7.17 15.94,15.94l0 182.27 0.16 0c0,29.21 -5.56,57.16 -15.61,82.68 -10.43,26.52 -25.77,50.47 -44.8,70.58 -19.26,20.36 -42.28,36.78 -67.84,47.98 -7.69,3.83 -16.09,7.05 -25.19,9.59 -28.78,8.01 -27.23,-8.52 -27.31,-20.59l0 -28.02c-0.48,-12.43 1.75,-21.61 22.68,-30.76zm-76.45 -0.33c-16.1,-7.05 -30.59,-17.38 -42.71,-30.19 -12.35,-13.06 -22.32,-28.77 -29.13,-46.27 -5.62,-14.46 -9.08,-30.18 -9.96,-46.7 0.55,-1.6 0.84,-3.31 0.84,-5.09l0 -185.48c0,-8.77 -7.17,-15.94 -15.94,-15.94l-45.07 0c-8.77,0 -15.94,7.17 -15.94,15.94l0 182.27 -0.16 0c0,29.21 5.56,57.16 15.61,82.69 10.43,26.51 25.77,50.46 44.79,70.57 19.26,20.36 42.29,36.78 67.85,47.98 7.69,3.83 16.08,7.05 25.19,9.59 28.77,8.01 27.23,-8.52 27.3,-20.59l0 -28.02c0.49,-12.42 -1.74,-21.61 -22.67,-30.76zm-899.23 -99.43l107.46 0 -53.73 -137.4 -53.73 137.4zm137.84 77.71l-168.23 0 -38.72 99.03c-2.31,5.9 -9.02,10.73 -14.93,10.73l-50.74 0c-5.91,0 -8.84,-4.83 -6.54,-10.73l154.75 -395.73c2.17,-5.54 8.19,-10.13 13.81,-10.68l0.04 0 0.24 -0.02 0.02 0 0.26 -0.02 0.01 0 0.27 -0.01 0 0 0.27 0 50.75 0 0.27 0 0.01 0 0.27 0.01 0.01 0 0.25 0.02 0.03 0 0.23 0.02 0.05 0c5.61,0.55 11.64,5.15 13.81,10.68l154.74 395.73c2.31,5.9 -0.62,10.73 -6.53,10.73l-50.75 0c-5.9,0 -12.62,-4.83 -14.92,-10.73l-38.73 -99.03zm1893.36 124.17c28.31,0 55.34,-5.96 80.01,-16.76 25.56,-11.2 48.59,-27.62 67.85,-47.98 19.03,-20.12 34.36,-44.07 44.79,-70.58 10.06,-25.52 15.61,-53.47 15.61,-82.68 0,-29.21 -5.55,-57.15 -15.61,-82.67 -10.43,-26.51 -25.76,-50.46 -44.79,-70.58 -19.26,-20.36 -42.29,-36.78 -67.85,-47.98 -24.67,-10.8 -51.7,-16.76 -80.01,-16.76 -28.31,0 -55.34,5.96 -80.01,16.76 -25.56,11.2 -48.59,27.62 -67.85,47.98 -19.02,20.12 -34.36,44.07 -44.79,70.58 -10.05,25.52 -15.61,53.46 -15.61,82.67 0,29.21 5.56,57.16 15.61,82.68 10.43,26.51 25.77,50.46 44.79,70.58 19.26,20.36 42.29,36.78 67.85,47.98 24.67,10.8 51.7,16.76 80.01,16.76zm0 -359.94c17.8,0 34.77,3.74 50.2,10.49 16.09,7.05 30.59,17.39 42.7,30.19 12.35,13.07 22.33,28.78 29.13,46.28 6.56,16.85 10.18,35.44 10.18,54.98 0,19.56 -3.62,38.14 -10.18,54.99 -6.8,17.51 -16.78,33.22 -29.13,46.28 -12.12,12.8 -26.61,23.14 -42.7,30.19 -15.43,6.75 -32.4,10.49 -50.2,10.49 -17.79,0 -34.77,-3.74 -50.19,-10.49 -16.1,-7.05 -30.59,-17.39 -42.71,-30.19 -12.35,-13.06 -22.32,-28.77 -29.13,-46.28 -6.55,-16.85 -10.18,-35.43 -10.18,-54.99 0,-19.54 3.63,-38.13 10.18,-54.98 6.8,-17.5 16.78,-33.21 29.13,-46.28 12.12,-12.8 26.61,-23.14 42.71,-30.19 15.42,-6.75 32.4,-10.49 50.19,-10.49zm347.22 -68.06c1.99,1.01 3.81,2.46 5.28,4.32l215.13 270.97 0 -265.45c0,-8.85 7.24,-16.09 16.09,-16.09l45.52 0c8.86,0 16.1,7.24 16.1,16.09l0 387.21c0,8.86 -7.24,16.09 -16.1,16.09l-45.52 0c-7.55,0 -13.93,-5.26 -15.64,-12.3l-214.96 -270.76 0 269.56c0,8.86 -7.23,16.1 -16.09,16.1l-45.52 0c-8.85,0 -16.09,-7.24 -16.09,-16.1l0 -387.2c0,-8.86 7.24,-16.09 16.09,-16.09l45.52 0c3.86,0 7.41,1.37 10.19,3.65zm-1092.28 -0.47c1.99,1.02 3.81,2.46 5.28,4.33l215.13 270.97 0 -265.45c0,-8.85 7.24,-16.09 16.09,-16.09l45.52 0c8.86,0 16.1,7.24 16.1,16.09l0 387.21c0,8.85 -7.24,16.09 -16.1,16.09l-45.52 0c-7.55,0 -13.93,-5.27 -15.64,-12.31l-214.96 -270.76 0 269.57c0,8.86 -7.23,16.09 -16.09,16.09l-45.52 0c-8.85,0 -16.09,-7.23 -16.09,-16.09l0 -387.21c0,-8.85 7.24,-16.09 16.09,-16.09l45.52 0c3.86,0 7.41,1.38 10.19,3.65zm404.27 -0.15l45.52 0c8.85,0 16.09,7.24 16.09,16.09l0 387.21c0,8.85 -7.24,16.09 -16.09,16.09l-45.52 0c-8.86,0 -16.1,-7.24 -16.1,-16.09l0 -387.21c0,-8.85 7.24,-16.09 16.1,-16.09zm-1256.46 401.58l0 -45.52c0,-8.86 7.23,-16.09 16.09,-16.09l138.93 0c8.86,0 16.09,7.23 16.09,16.09l0 45.52c0,8.86 -7.23,16.09 -16.09,16.09l-138.93 0c-8.86,0 -16.09,-7.23 -16.09,-16.09zm-100.06 -403.3l45.52 0c8.86,0 16.09,7.24 16.09,16.1l0 387.2c0,8.86 -7.23,16.09 -16.09,16.09l-45.52 0c-8.86,0 -16.09,-7.23 -16.09,-16.09l0 -387.2c0,-8.86 7.23,-16.1 16.09,-16.1zm-729.81 236.77l0 -45.52c0,-8.85 7.24,-16.09 16.1,-16.09l182.17 0c1,0 1.97,0.09 2.92,0.26l15.5 0c3.31,0 6.03,2.55 6.31,5.8 0.54,4.41 0.97,8.98 1.25,13.71 0.29,4.79 0.44,9.48 0.44,14.05 0,29.21 -5.55,57.16 -15.61,82.68 -10.43,26.51 -25.76,50.46 -44.79,70.57 -19.26,20.37 -42.28,36.78 -67.84,47.98 -24.68,10.8 -51.71,16.76 -80.02,16.76 -28.31,0 -55.34,-5.96 -80.01,-16.76 -25.56,-11.2 -48.59,-27.61 -67.85,-47.98 -19.02,-20.11 -34.36,-44.06 -44.79,-70.57 -10.05,-25.52 -15.61,-53.47 -15.61,-82.68 0,-29.21 5.56,-57.16 15.61,-82.69 10.43,-26.5 25.77,-50.45 44.79,-70.57 19.26,-20.36 42.29,-36.77 67.85,-47.97 24.67,-10.8 51.7,-16.76 80.01,-16.76 28.31,0 55.34,5.96 80.02,16.76 25.56,11.2 48.58,27.61 67.84,47.97 12.44,13.16 23.3,27.95 32.24,44.02 8.8,15.83 15.76,32.91 20.55,50.87 0.88,3.37 -1.14,6.84 -4.51,7.73 -0.54,0.14 -1.08,0.21 -1.61,0.21l-66.4 0.01c-2.91,0 -5.36,-1.96 -6.1,-4.63 -3.34,-8.57 -7.46,-16.73 -12.27,-24.38 -4.92,-7.86 -10.6,-15.18 -16.89,-21.83l-0.29 -0.34c-12.05,-12.65 -26.43,-22.87 -42.38,-29.85 -15.43,-6.76 -32.4,-10.49 -50.2,-10.49 -17.79,0 -34.77,3.73 -50.19,10.49 -16.1,7.04 -30.59,17.38 -42.71,30.19 -12.35,13.06 -22.33,28.77 -29.13,46.27 -6.55,16.85 -10.18,35.44 -10.18,54.99 0,19.55 3.63,38.13 10.18,54.99 6.81,17.5 16.78,33.21 29.13,46.27 12.12,12.81 26.61,23.14 42.71,30.19 15.42,6.76 32.4,10.49 50.19,10.49 17.8,0 34.77,-3.73 50.2,-10.49 16.09,-7.05 30.59,-17.38 42.7,-30.19 12.35,-13.06 22.33,-28.77 29.13,-46.27 1.41,-3.63 2.68,-7.33 3.82,-11.11l-126.18 0c-8.86,0 -16.1,-7.23 -16.1,-16.09zm-472.37 -67.89l184 0c8.85,0 16.09,7.24 16.09,16.1l0 45.52c0,8.85 -7.24,16.09 -16.09,16.09l-184 0 0 93.14 224.75 0c8.85,0 16.09,7.24 16.09,16.09l0 45.52c0,8.86 -7.24,16.1 -16.09,16.1l-240.85 0 -45.52 0c-8.85,0 -16.09,-7.24 -16.09,-16.1l0 -45.52 0 -125.32 0 -45.52 0 -125.32 0 -45.52c0,-8.86 7.24,-16.09 16.09,-16.09l45.52 0 240.85 0c8.85,0 16.09,7.23 16.09,16.09l0 45.52c0,8.85 -7.24,16.09 -16.09,16.09l-224.75 0 0 93.13zm-308.27 233.98l0 -45.52c0,-8.85 7.24,-16.09 16.09,-16.09l138.94 0c8.85,0 16.09,7.24 16.09,16.09l0 45.52c0,8.86 -7.24,16.1 -16.09,16.1l-138.94 0c-8.85,0 -16.09,-7.24 -16.09,-16.1z"/>
 </g>
</svg>
