<?xml version="1.0" encoding="UTF-8"?>
<!DOCTYPE svg PUBLIC "-//W3C//DTD SVG 1.1//EN" "http://www.w3.org/Graphics/SVG/1.1/DTD/svg11.dtd">
<!-- Creator: CorelDRAW 2021 (64-Bit) -->
<svg xmlns="http://www.w3.org/2000/svg" xml:space="preserve" width="42.3332mm" height="42.3332mm" version="1.1" style="shape-rendering:geometricPrecision; text-rendering:geometricPrecision; image-rendering:optimizeQuality; fill-rule:evenodd; clip-rule:evenodd"
viewBox="0 0 4233.32 4233.32"
 xmlns:xlink="http://www.w3.org/1999/xlink"
 xmlns:xodm="http://www.corel.com/coreldraw/odm/2003">
 <defs>
  <style type="text/css">
   <![CDATA[
    .fil0 {fill:#FEFEFE}
    .fil1 {fill:#FEFEFE;fill-rule:nonzero}
   ]]>
  </style>
 </defs>
 <g id="Слой_x0020_1">
  <metadata id="CorelCorpID_0Corel-Layer"/>
  <path class="fil0" d="M40496.33 -10693.52l401.15 0c21.69,0 39.42,17.73 39.42,39.43l0 401.15c0,21.69 -17.73,39.41 -39.42,39.41l-151.41 0 0 -184.08 70.62 0c6.63,0 8.95,-6.62 8.95,-13.41l0 -67.04c0,-7.2 -2.84,-13.4 -9.85,-13.4l-69.72 0 0 -44.71c0,-32.11 17.63,-28.65 31.8,-30.77 27.93,-4.18 50.44,7.74 50.44,-12.14l0 -65.25c0,-6.47 -3.57,-11.62 -9.84,-11.62l-61.7 0c-10.96,0.51 -21.19,1.56 -29.48,3.56 -11.49,2.79 -11.33,3.5 -21.09,7.52 -3.24,1.34 -6.37,3.38 -9.27,5.04 -6.96,3.98 -18.46,14.13 -23.3,20.51 -21.37,28.27 -25,53.45 -25,91.21l0 36.65 -60.79 0c-3.64,0 -8.05,5.06 -8.05,11.62l0 70.62c0,5.88 3.14,11.61 8.95,11.61l59.89 0 0 184.08 -152.3 0c-21.69,0 -39.42,-17.72 -39.42,-39.41l0 -401.15c0,-21.7 17.73,-39.43 39.42,-39.43z"/>
  <path class="fil1" d="M1025.22 175.92l2299.74 0 0 3881.48 -2416.59 0 0 -3881.48 116.85 0zm1103.13 3130.52c106.45,0 192.56,84.71 192.56,189.05 0,104.23 -86.11,188.94 -192.56,188.94 -106.45,0 -192.56,-84.71 -192.56,-188.94 0,-104.34 86.11,-189.05 192.56,-189.05zm962.92 -2896.83l-1949.21 0 0 3414.1 1949.21 0 0 -3414.1z"/>
 </g>
</svg>
