<?xml version="1.0" encoding="UTF-8"?>
<!DOCTYPE svg PUBLIC "-//W3C//DTD SVG 1.1//EN" "http://www.w3.org/Graphics/SVG/1.1/DTD/svg11.dtd">
<!-- Creator: CorelDRAW 2021 (64-Bit) -->
<svg xmlns="http://www.w3.org/2000/svg" xml:space="preserve" width="100mm" height="100mm" version="1.1" style="shape-rendering:geometricPrecision; text-rendering:geometricPrecision; image-rendering:optimizeQuality; fill-rule:evenodd; clip-rule:evenodd"
viewBox="0 0 10000 10000"
 xmlns:xlink="http://www.w3.org/1999/xlink"
 xmlns:xodm="http://www.corel.com/coreldraw/odm/2003">
 <defs>
  <style type="text/css">
   <![CDATA[
    .fil0 {fill:#FEFEFE}
   ]]>
  </style>
 </defs>
 <g id="Слой_x0020_1">
  <metadata id="CorelCorpID_0Corel-Layer"/>
  <path class="fil0" d="M4996.19 53.8c2733.84,0 4950,2216.19 4950,4950 0,2733.8 -2216.16,4950 -4950,4950 -2733.83,0 -4950,-2216.2 -4950,-4950 0,-2733.81 2216.17,-4950 4950,-4950zm-4363.96 5215.25c239.87,163.17 1382.66,462.95 1788.94,594.6 382.16,123.69 943.01,-397.1 1519.36,-742.44 358.66,-215.03 2679.77,-1798.4 3029.01,-1810 -54.36,204.69 -824.65,841.32 -1053.35,1044.29l-1636.54 1503.4c-188.13,204.11 -425.3,335.02 -555.98,503.95 -137.61,177.9 -228.93,1569.78 -202.28,1889.94 431.55,-66.59 856.02,-778.87 1222.84,-966.07 275.34,179.96 541.83,393.64 797.4,583.48 711.16,528.28 1367.65,1222.39 1577.67,430.66 99.02,-373.5 167.61,-775.13 250.53,-1164.79 121.11,-568.56 967.47,-4376.03 948.04,-4611.2 -42.29,-510.91 -484.86,-316.14 -831.03,-182.19l-6030.53 2329.9c-506.53,200.39 -832.67,212.74 -824.08,596.47z"/>
 </g>
</svg>
