<?xml version="1.0" encoding="UTF-8"?>
<!DOCTYPE svg PUBLIC "-//W3C//DTD SVG 1.1//EN" "http://www.w3.org/Graphics/SVG/1.1/DTD/svg11.dtd">
<!-- Creator: CorelDRAW 2021 (64-Bit) -->
<svg xmlns="http://www.w3.org/2000/svg" xml:space="preserve" width="42.3332mm" height="42.3332mm" version="1.1" style="shape-rendering:geometricPrecision; text-rendering:geometricPrecision; image-rendering:optimizeQuality; fill-rule:evenodd; clip-rule:evenodd"
viewBox="0 0 4233.32 4233.32"
 xmlns:xlink="http://www.w3.org/1999/xlink"
 xmlns:xodm="http://www.corel.com/coreldraw/odm/2003">
 <defs>
  <style type="text/css">
   <![CDATA[
    .fil0 {fill:#FEFEFE}
   ]]>
  </style>
 </defs>
 <g id="Слой_x0020_1">
  <metadata id="CorelCorpID_0Corel-Layer"/>
  <path class="fil0" d="M130.82 2035.92c123.96,84.3 714.47,239.22 924.44,307.24 197.46,63.94 487.33,-205.2 785.15,-383.66 185.33,-111.08 1384.79,-929.33 1565.26,-935.3 -28.06,105.76 -426.15,434.77 -544.33,539.61l-845.73 776.91c-97.19,105.47 -219.72,173.14 -287.28,260.43 -71.1,91.92 -118.28,811.2 -104.53,976.61 223.02,-34.37 442.37,-402.47 631.94,-499.19 142.27,93 279.97,203.4 412.05,301.5 367.52,273.01 706.76,631.7 815.26,222.56 51.19,-193.01 86.62,-400.54 129.5,-601.92 62.56,-293.78 499.92,-2261.33 489.87,-2382.88 -21.85,-264 -250.58,-163.37 -429.41,-94.14l-3116.33 1204.01c-261.76,103.53 -430.3,109.93 -425.86,308.22z"/>
 </g>
</svg>
