<?xml version="1.0" encoding="UTF-8"?>
<!DOCTYPE svg PUBLIC "-//W3C//DTD SVG 1.1//EN" "http://www.w3.org/Graphics/SVG/1.1/DTD/svg11.dtd">
<!-- Creator: CorelDRAW 2021 (64-Bit) -->
<svg xmlns="http://www.w3.org/2000/svg" xml:space="preserve" width="100mm" height="100mm" version="1.1" style="shape-rendering:geometricPrecision; text-rendering:geometricPrecision; image-rendering:optimizeQuality; fill-rule:evenodd; clip-rule:evenodd"
viewBox="0 0 10000 10000"
 xmlns:xlink="http://www.w3.org/1999/xlink"
 xmlns:xodm="http://www.corel.com/coreldraw/odm/2003">
 <defs>
  <style type="text/css">
   <![CDATA[
    .fil0 {fill:#FEFEFE}
   ]]>
  </style>
 </defs>
 <g id="Слой_x0020_1">
  <metadata id="CorelCorpID_0Corel-Layer"/>
  <path class="fil0" d="M905.74 53.8l8180.92 0c472.75,0 859.54,386.79 859.54,859.54l0 8180.92c0,472.75 -386.79,859.54 -859.54,859.54l-8180.92 0c-472.75,0 -859.54,-386.79 -859.54,-859.54l0 -8180.92c0,-472.75 386.79,-859.54 859.54,-859.54zm2869.19 2388.67c-169.87,54.53 -292.19,127.16 -335.45,278.44 100.54,61.46 218.3,56.1 327.26,132.11 261.36,182.17 253.36,746.43 253.36,1074.09 0,256.43 -21.54,605.49 -82.94,812.35 -101.17,340.78 -363.48,213 -499.49,22.78 -256.4,-227.44 -415.79,-583.63 -626.32,-896.99 -112.91,-210.53 -227.35,-445.88 -340.26,-675.43 -123.12,-250.56 -141.68,-512.58 -440.46,-579.42 -182.85,-41 -781.67,-13.07 -1008.45,-13.27 -604.4,-0.51 -664.14,-6.18 -644.8,329.72 414.45,500.26 1230.75,2402.66 1964.03,3362.23 859.55,1124.42 1941.34,1405.67 3299.59,1303.15l42.03 -53.23c108.39,-150.11 102.35,-225.29 102.35,-456.99 54.95,-306.52 75.46,-528.45 309.32,-658.16 188.93,-30.4 333.79,56.13 391.75,184.83 130.28,64.73 358.43,351.21 489.05,488.37 101.71,106.78 129.02,151.85 245.69,251.36 91.94,78.36 184.68,126.89 265.54,202.71 475.79,129.47 1116.35,95.29 1637.75,72 809.51,-36.19 436.82,-572.03 175,-900.38 -129.79,-162.68 -262.94,-304.62 -395.05,-440.31l-448.94 -416.97c-119.27,-125.83 -343.21,-318.23 -344.76,-515.09 -1.38,-169.68 196.29,-468.11 306.74,-552.03 60.86,-119.91 209.47,-296.17 300.53,-413.64 104.83,-135.21 203.68,-258.87 305.97,-404.56 178.67,-254.48 420.4,-578.36 536.7,-885.59 238.98,-631.42 -316.57,-491.2 -806.03,-487.76 -236.97,1.6 -475.07,-3.93 -711.38,3.15 -304,9.03 -411.96,-42.58 -580.71,120.45 -55.73,113.52 -18.05,125.64 -115.15,196.69 3.44,126.73 -127.59,376.14 -186.07,490.09 -60.22,117.24 -151.48,362.9 -236.71,417.33 -68.77,204.69 -578.36,1067.82 -943.21,1113.37 -144.55,-122.86 -169.99,-150.73 -202.77,-364.3 -49.05,-320.15 28.14,-1199.09 13.35,-1646.03 -14.49,-431.89 -199.07,-545.72 -625.26,-556.9 -439.25,-19.45 -985.98,-47.99 -1391.8,61.83z"/>
 </g>
</svg>
