<?xml version="1.0" encoding="UTF-8"?>
<!DOCTYPE svg PUBLIC "-//W3C//DTD SVG 1.1//EN" "http://www.w3.org/Graphics/SVG/1.1/DTD/svg11.dtd">
<!-- Creator: CorelDRAW 2021 (64-Bit) -->
<svg xmlns="http://www.w3.org/2000/svg" xml:space="preserve" width="42.3332mm" height="42.3332mm" version="1.1" style="shape-rendering:geometricPrecision; text-rendering:geometricPrecision; image-rendering:optimizeQuality; fill-rule:evenodd; clip-rule:evenodd"
viewBox="0 0 4233.32 4233.32"
 xmlns:xlink="http://www.w3.org/1999/xlink"
 xmlns:xodm="http://www.corel.com/coreldraw/odm/2003">
 <defs>
  <style type="text/css">
   <![CDATA[
    .fil0 {fill:#FEFEFE}
   ]]>
  </style>
 </defs>
 <g id="Слой_x0020_1">
  <metadata id="CorelCorpID_0Corel-Layer"/>
  <path class="fil0" d="M1615.74 1066.1c-69.67,22.35 -119.84,52.15 -137.59,114.19 41.23,25.21 89.53,23.02 134.24,54.2 107.2,74.72 103.9,306.15 103.9,440.55 0,105.17 -8.82,248.33 -34.01,333.2 -41.49,139.77 -149.08,87.36 -204.86,9.34 -105.17,-93.3 -170.57,-239.39 -256.91,-367.91 -46.31,-86.36 -93.25,-182.89 -139.56,-277.04 -50.5,-102.78 -58.12,-210.24 -180.67,-237.67 -75,-16.81 -320.61,-5.35 -413.62,-5.43 -247.92,-0.22 -272.41,-2.54 -264.48,135.23 169.99,205.19 504.81,985.5 805.56,1379.08 352.58,461.2 796.31,576.55 1353.4,534.51l17.24 -21.84c44.46,-61.58 41.98,-92.4 41.98,-187.44 22.54,-125.72 30.94,-216.75 126.86,-269.96 77.49,-12.46 136.92,23.02 160.7,75.81 53.43,26.57 147.01,144.06 200.58,200.31 41.72,43.81 52.92,62.29 100.77,103.11 37.71,32.15 75.75,52.05 108.91,83.13 195.16,53.12 457.91,39.1 671.78,29.54 332.02,-14.84 179.16,-234.63 71.76,-369.29 -53.22,-66.74 -107.85,-124.95 -162.03,-180.61l-184.15 -171.03c-48.91,-51.62 -140.76,-130.52 -141.41,-211.27 -0.57,-69.59 80.51,-192.03 125.82,-226.43 24.97,-49.18 85.92,-121.49 123.28,-169.66 43,-55.47 83.54,-106.18 125.48,-165.93 73.29,-104.39 172.45,-237.23 220.15,-363.25 98.03,-258.98 -129.85,-201.47 -330.62,-200.06 -97.18,0.67 -194.85,-1.61 -291.78,1.29 -124.68,3.71 -168.98,-17.46 -238.18,49.41 -22.85,46.57 -7.42,51.53 -47.23,80.67 1.4,51.98 -52.33,154.28 -76.32,201.02 -24.7,48.1 -62.14,148.85 -97.09,171.18 -28.22,83.96 -237.23,437.98 -386.88,456.66 -59.28,-50.38 -69.73,-61.82 -83.16,-149.42 -20.13,-131.31 11.54,-491.82 5.48,-675.15 -5.95,-177.14 -81.66,-223.83 -256.46,-228.41 -180.16,-7.97 -404.42,-19.68 -570.88,25.37z"/>
 </g>
</svg>
